<?xml version="1.0" encoding="UTF-8"?>
<svg id="Layer_2" data-name="Layer 2" xmlns="http://www.w3.org/2000/svg" viewBox="0 0 274.65 94.72">
  <defs>
    <style>
      .cls-1 {
        isolation: isolate;
      }

      .cls-2 {
        fill: #fff;
        stroke-width: 0px;
      }
    </style>
  </defs>
  <g id="Layer_1-2" data-name="Layer 1">
    <path class="cls-2" d="m38.91,42.97c.46.41.97.78,1.52,1.1-1.47.51-3.03.83-4.69.83-7.54,0-13.66-6.12-13.66-13.66s6.12-13.62,13.66-13.62,13.62,6.12,13.62,13.62c0,2.99-.97,5.75-2.58,8-.6-.46-1.2-.97-1.75-1.47.64-3.04-.05-6.99-2.16-10.63-3.5-6.07-9.57-9.15-13.48-6.86-3.96,2.25-4.28,9.02-.78,15.09,2.62,4.6,6.76,7.45,10.31,7.59Zm-4.09-11.73c0-3.04.97-5.84,2.67-8.1.6.46,1.15.97,1.66,1.52-.69,3.04.05,6.99,2.16,10.72,2.81,4.83,8.28,8.23,13.02,7.18v-6.12c0-1.93-.41-4.69-2.94-4.69v-.46h10.9v.46c-1.79,0-2.94,1.47-2.94,4.69v4.14c-2.3,2.9-6.72,4.33-10.9,4.33-7.54,0-13.62-6.12-13.62-13.66Zm18.13-10.31c-2.44-1.61-5.29-2.35-8.1-1.75-.37-.23-.73-.51-1.1-.74,1.47-.55,3.04-.83,4.69-.83,2.3,0,4.14.28,6.3,1.01,1.75.6,3.45,1.2,4.14-1.01h.46v11.27h-.46c-.92-3.22-3.13-6.16-5.94-7.96Z"/>
    <g>
      <path class="cls-2" d="m44.21,10.2c11.64-16.87,35.93-11.18,41.29,7.97,3.31,10.48-2.75,21.45-10.73,28.08-7.9,7.02-18.88,9.27-26.69,16.41-6.2,5.61-10.48,15.03-6.56,23.09-6.15-8.2-2.57-20.02,3.38-27.34,5.55-6.83,13.13-11.51,19.85-17.05,10.54-6.53,16.19-19.83,8.25-30.64-6.67-9.43-21.29-8.45-28.71-.45l-.07-.07Z"/>
      <path class="cls-2" d="m46.21,16.36C38.17.5,18.09-6.8,5.32,8.17c-13.41,19.03.63,35.72,18.84,43.51,5.69,2.47,11.26,5.36,11.45,12.32,1.45-9.34-8.58-13.34-14.73-17.96-1.73-1.34-3.32-2.87-4.91-4.39-6.39-6.2-11.51-15.88-7.87-24.76,8.16-18.88,27.46-14.87,38.03-.48.03-.02.06-.03.08-.05Z"/>
    </g>
    <g class="cls-1">
      <path class="cls-2" d="m124.91,20.27c0,9.29-7.54,16.83-16.83,16.83s-16.77-7.54-16.77-16.83,7.48-16.77,16.77-16.77,16.83,7.48,16.83,16.77Zm-24.59-13.49c-4.87,2.78-5.33,11.11-1.02,18.59,4.31,7.42,11.73,11.22,16.6,8.44,4.87-2.83,5.27-11.17.96-18.59-4.31-7.48-11.73-11.28-16.55-8.44Z"/>
      <path class="cls-2" d="m129.16,31.89V8.88c0-2.21-1.3-3.34-3.29-3.34v-.57l8.9-1.47v28.39c0,3.17,1.53,4.65,3.29,4.65v.57h-12.18v-.57c1.76,0,3.29-1.47,3.29-4.65h0Z"/>
      <path class="cls-2" d="m142.55,18.96c0-2.15-1.36-3.29-3.29-3.29v-.57l8.84-1.53v18.3c0,3.17,1.53,4.65,3.29,4.65v.57h-12.13v-.57c1.76,0,3.29-1.47,3.29-4.65v-12.92Zm6.06-10.99c0,1.7-1.47,3.06-3.29,3.06s-3.34-1.36-3.34-3.06,1.53-3.06,3.34-3.06,3.29,1.36,3.29,3.06Z"/>
      <path class="cls-2" d="m166.3,32.06l4.53-12.41c1.76-4.7,5.04-14.68,11.28-14.68,1.81,0,3.29,1.36,3.29,3s-1.47,3.06-3.29,3.06c-2.44,0-4.14,1.02-5.55,2.04-2.04,1.47-3.34,3.68-4.48,6.86l-6.23,17.17h-3.34l-7.03-17.74c-1.08-2.83-2.55-5.21-4.36-5.21v-.57h12.52v.57c-2.49,0-3.57,1.7-2.27,5.04l4.93,12.86Zm12.98-13.04c0-2.21-1.3-3.34-3.23-3.34v-.57l8.84-1.53v18.3c0,3.17,1.53,4.65,3.29,4.65v.57h-12.13v-.57c1.7,0,3.23-1.47,3.23-4.65v-12.87Z"/>
      <path class="cls-2" d="m209.03,32.45c0,2.04,1.42,3.06,3.68,1.3v.79c-.68,1.02-2.78,2.55-5.27,2.55-3.23,0-4.02-2.32-4.02-4.65v-1.53c-1.98,3.17-4.42,6.18-8.05,6.18-3.29,0-5.5-2.32-5.78-4.99-.4-3.85,3.29-6.63,7.25-8.44,2.72-1.25,4.65-1.87,6.57-2.66v-2.38c0-1.93-.68-4.02-3.17-4.02-2.15,0-2.95,1.3-3.29,4.25-.17,1.98-1.76,2.95-3.23,2.83-1.81-.11-2.61-1.58-2.61-3,0-2.04,1.64-3.63,3.4-4.31,1.7-.68,3.91-.79,5.61-.79,5.55,0,8.84,1.98,8.84,7.71l.06,11.16Zm-5.61-10.43c-1.36.68-3.8,1.76-5.67,3.29-3.29,2.49-3.46,5.27-2.21,6.8,1.64,2.04,4.19,1.19,5.84-.34.85-.79,1.53-1.87,2.04-2.95v-6.8Z"/>
    </g>
    <g>
      <path class="cls-2" d="m117.38,46.2c-.73-1.39-1.64-2.5-2.71-3.32s-2.27-1.41-3.6-1.77-2.71-.54-4.15-.54c-2.19,0-4.09.43-5.72,1.29s-2.98,2.01-4.07,3.45-1.9,3.05-2.44,4.85-.8,3.65-.8,5.55.29,3.75.84,5.54,1.38,3.4,2.47,4.83,2.46,2.56,4.1,3.39,3.55,1.24,5.74,1.24c3-.05,5.76-.91,8.27-2.58v-12.91h-4.05v-.68h6.75v16.85h-2.7v-2.44c-2.53,1.58-5.29,2.39-8.27,2.44-2.95,0-5.62-.7-8.02-2.1s-4.3-3.29-5.74-5.68-2.16-5.05-2.16-7.97.71-5.53,2.12-7.92,3.31-4.29,5.7-5.71,5.03-2.12,7.93-2.12,5.83.8,8.39,2.41c.66.38,1.17.38,1.54.01s.55-.82.55-1.37c0-.19.11-.3.33-.35.19,0,.3.12.35.35v5.16c-.02.22-.13.33-.35.33-.14,0-.25-.08-.33-.23Z"/>
      <path class="cls-2" d="m139.06,69.38c.16.44.39.75.69.94s.64.3,1.01.34.72.06,1.07.06c.22.05.33.16.33.35-.05.22-.16.33-.33.33h-7.66c-.23-.05-.35-.16-.35-.33.05-.23.16-.35.35-.35.33,0,.68-.02,1.07-.06s.67-.15.87-.34.22-.5.08-.94l-2.06-5.67h-9.23l-2.06,5.67c-.16.44-.13.75.07.94s.5.3.88.34.74.06,1.07.06c.23.05.35.16.35.35-.05.22-.16.33-.35.33h-5.51c-.22-.05-.33-.16-.33-.33.03-.23.14-.35.33-.35.34,0,.7-.02,1.07-.06s.7-.15,1-.34.53-.5.7-.94l7.45-20.48h2.06l7.45,20.48Zm-9.56-18.38l-4.38,12.02h8.77l-4.38-12.02Z"/>
      <path class="cls-2" d="m150.9,61.51h-2.93v7.88c0,.44.1.75.3.94s.46.3.76.34.63.06.97.06c.22.05.33.16.33.35-.03.22-.14.33-.33.33h-6.75c-.23-.05-.35-.16-.35-.33.05-.23.16-.35.35-.35.33,0,.65-.02.96-.06s.57-.15.76-.34.29-.5.29-.94v-7.88h-.8c-.22-.05-.33-.16-.33-.35.03-.22.14-.33.33-.33h.8v-9.91c0-.44-.1-.75-.29-.94s-.45-.3-.76-.34-.63-.06-.96-.06c-.23-.05-.35-.16-.35-.35.05-.22.16-.33.35-.33h9.75c1.73,0,3.21.62,4.44,1.85s1.84,2.72,1.84,4.45c0,1.53-.48,2.87-1.43,4.01s-2.18,1.87-3.68,2.18c.5.09,1.06.59,1.69,1.5s1.28,2.04,1.97,3.41,1.37,2.79,2.05,4.27,1.32,2.83,1.93,4.07,1.15,2.17,1.62,2.81c1.14-.44,2.94-1.07,5.39-1.89s5.08-1.39,7.88-1.7c3.67-.27,6.38.21,8.13,1.44s2.62,2.73,2.6,4.51-.85,3.38-2.5,4.79-4.03,2.18-7.14,2.29c-2.92,0-5.78-.55-8.58-1.64s-5-2.61-6.61-4.55c-1.91.66-3.82,1.31-5.74,1.97,1.42,2.39,2.04,4.46,1.85,6.2s-.85,3.11-1.99,4.11-2.43,1.57-3.88,1.71c-1.45.14-2.72-.19-3.81-.98-.33-.27-.49-.61-.49-1.03,0-.38.13-.7.4-.96s.58-.4.94-.4c.19,0,.41.08.68.25s.57.33.9.49.7.26,1.09.29c1.08.06,2.11-.28,3.11-1.03s1.62-1.84,1.88-3.27-.18-3.15-1.3-5.17c-4.55,1.56-8.84,2.81-12.87,3.75-2.2.48-4.13.73-5.79.73s-3.06-.18-4.22-.54-2.07-.85-2.74-1.46-1.11-1.31-1.32-2.09-.2-1.57.02-2.39.66-1.62,1.3-2.39,1.48-1.46,2.51-2.07c1.39-.78,3.02-1.32,4.9-1.62s3.84-.32,5.88-.07c2.12.27,4.17.86,6.14,1.78s3.7,2.21,5.18,3.87c1.89-.64,3.77-1.28,5.62-1.92-.61-.72-1.34-1.96-2.19-3.74s-1.74-3.67-2.66-5.68-1.8-3.75-2.64-5.2-1.54-2.23-2.12-2.32h-.35Zm-1.29,15.55c-1.86-.85-3.78-1.4-5.77-1.65s-3.88-.23-5.7.05c-1.8.28-3.36.8-4.69,1.55-1.95,1.23-2.98,2.37-3.09,3.41s.44,1.91,1.64,2.6,2.77,1.14,4.71,1.35,3.96.09,6.07-.35c3.62-.84,7.54-1.98,11.74-3.4-1.42-1.52-3.06-2.7-4.92-3.55Zm-1.64-16.23h3.63c1.81,0,3.1-.51,3.86-1.52s1.14-2.38,1.14-4.1-.38-3.09-1.14-4.1-2.04-1.52-3.86-1.52h-3.63v11.25Zm22.22,23.48c2.39,1.23,4.95,1.87,7.66,1.9,1.67-.03,3.13-.33,4.38-.89s2.24-1.27,2.98-2.12,1.15-1.73,1.25-2.62-.16-1.71-.8-2.44-1.7-1.25-3.19-1.56-3.47-.3-5.94.05c-2.5.41-4.82.95-6.96,1.62s-3.67,1.18-4.59,1.52c1.08,1.8,2.81,3.31,5.2,4.55Z"/>
      <path class="cls-2" d="m181.81,69.38c.16.44.39.75.69.94s.64.3,1.01.34.72.06,1.07.06c.22.05.33.16.33.35-.05.22-.16.33-.33.33h-7.66c-.23-.05-.35-.16-.35-.33.05-.23.16-.35.35-.35.33,0,.68-.02,1.07-.06s.67-.15.87-.34.22-.5.08-.94l-2.06-5.67h-9.23l-2.06,5.67c-.16.44-.13.75.07.94s.5.3.88.34.74.06,1.07.06c.23.05.35.16.35.35-.05.22-.16.33-.35.33h-5.51c-.22-.05-.33-.16-.33-.33.03-.23.14-.35.33-.35.34,0,.7-.02,1.07-.06s.7-.15,1-.34.53-.5.7-.94l7.45-20.48h2.06l7.45,20.48Zm-9.56-18.38l-4.38,12.02h8.77l-4.38-12.02Z"/>
      <path class="cls-2" d="m223.25,48.9l.66,4.05c-.03.22-.14.33-.33.33-.22-.03-.33-.14-.33-.33-.09-.58-.21-1.12-.35-1.64s-.34-.93-.61-1.25-.62-.48-1.08-.48h-12.3c-3.39,7.27-6.78,14.54-10.17,21.82h-.75l-9.33-20.02v18c0,.44.1.75.29.94s.45.3.75.34.63.06.97.06c.22.05.33.16.33.35-.03.22-.14.33-.33.33h-4.73c-.22-.03-.33-.14-.33-.33.03-.23.14-.35.33-.35.34,0,.67-.02.98-.06s.57-.15.76-.34.29-.5.29-.94v-19.45l-.49-1.03h2.98l9,19.31,9-19.31h14.79Zm-15.56,10.66c-.23-.05-.35-.16-.35-.33.05-.23.16-.35.35-.35h.77v-6.8l.87-1.83h1.85v8.62h2.02c.45,0,.77-.16.96-.49s.3-.75.34-1.27.06-1.05.06-1.62c.03-.22.14-.33.33-.33.22.03.33.14.33.33v7.43c-.03.22-.14.33-.33.33-.22-.03-.33-.14-.33-.33,0-.34,0-.78-.02-1.31s-.12-1.01-.3-1.43-.53-.63-1.03-.63h-2.02v9.82c0,.44.09.75.28.94s.43.3.74.34.62.06.95.06h8.06c.45,0,.81-.16,1.08-.48s.47-.73.61-1.24.26-1.06.35-1.65c.03-.22.14-.33.33-.33.22.03.33.14.33.33l-.66,4.05h-16.8c-.22-.03-.33-.14-.33-.33.03-.23.14-.35.33-.35.34,0,.67-.02.97-.06s.55-.15.75-.34.29-.5.29-.94v-9.82h-.77Z"/>
      <path class="cls-2" d="m239.03,48.9h4.73c.19,0,.3.11.33.33,0,.19-.11.3-.33.35-.34,0-.67.02-.97.06s-.56.15-.76.34-.3.5-.3.94v19.31l.68,1.17h-3.12l-11.62-20.16v18.14c0,.44.1.75.29.94s.45.3.75.34.63.06.97.06c.19,0,.3.12.33.35,0,.17-.11.28-.33.33h-4.73c-.19,0-.3-.11-.33-.33,0-.19.11-.3.33-.35.34,0,.67-.02.98-.06s.57-.15.76-.34.29-.5.29-.94v-19.31l-.68-1.17h3.12l11.65,20.16v-18.14c0-.44-.1-.75-.3-.94s-.46-.3-.76-.34-.63-.06-.97-.06c-.19,0-.3-.12-.33-.35,0-.17.11-.28.33-.33Z"/>
      <path class="cls-2" d="m266.99,60.15c0,2.08-.51,3.96-1.52,5.66s-2.38,3.05-4.08,4.07-3.59,1.52-5.65,1.52h-10.5c-.19,0-.3-.11-.33-.33,0-.19.11-.3.33-.35.34,0,.67-.02.98-.06s.57-.15.76-.34.29-.5.29-.94v-18.47c0-.44-.1-.75-.29-.94s-.45-.3-.76-.34-.64-.06-.98-.06c-.19,0-.3-.12-.33-.35,0-.19.11-.3.33-.33h10.5c2.06,0,3.95.51,5.65,1.52s3.06,2.37,4.08,4.07,1.52,3.58,1.52,5.66Zm-17.02,10.57h5.6c1.41,0,2.65-.31,3.74-.93s2-1.43,2.74-2.45,1.3-2.15,1.69-3.41.57-2.52.57-3.79-.19-2.6-.57-3.86-.95-2.39-1.71-3.4-1.69-1.81-2.79-2.41-2.37-.9-3.81-.9h-5.46v21.14Z"/>
      <path class="cls-2" d="m274.65,49.22c-.05.23-.16.35-.35.35-.33,0-.65.02-.96.06s-.57.15-.76.34-.29.5-.29.94v18.47c0,.45.1.77.29.96s.45.3.76.33.63.05.96.05c.23.05.35.16.35.35-.05.22-.16.33-.35.33h-6.75c-.22-.05-.33-.16-.33-.33.03-.23.14-.35.33-.35.34,0,.67-.02.98-.06s.57-.15.76-.34.29-.5.29-.94v-18.47c0-.44-.1-.75-.29-.94s-.45-.3-.76-.34-.64-.06-.98-.06c-.22-.05-.33-.16-.33-.35.03-.22.14-.33.33-.33h6.75c.23.05.35.16.35.33Z"/>
    </g>
  </g>
</svg>